# xmcd CD database file
#
# Track frame offsets:
#	150
#	23151
#	61585
#	94112
#	121449
#	163249
#	198129
#	220801
#
# Disc length: 3226 seconds
#
# Revision: 0
# Processed by: cddbd v1.5PL3 Copyright (c) Steve Scherf et al.
# Submitted via: CDex 1.51
#
DISCID=650c9808
DTITLE=Vibrational Healing Ascension Current  - Astarius
DYEAR=1999
DGENRE=New Age
TTITLE0=Seven Portals
TTITLE1=Ascention Current
TTITLE2=Winged Vessels
TTITLE3=Miraculi
TTITLE4=Ashtar
TTITLE5=DNA Translation
TTITLE6=Astarius
TTITLE7=Translation
EXTD=YEAR: 1999
EXTT0=
EXTT1=
EXTT2=
EXTT3=
EXTT4=
EXTT5=
EXTT6=
EXTT7=
PLAYORDER=
